/* XPM */
static char *_185_4a10b9f5676db42e0054d03daf6bb4711af4f231971c6367bb60ce540e8af302[] = {
/* columns rows colors chars-per-pixel */
"64 64 130 2 ",
"   c #000000",
".  c #191718",
"X  c #181818",
"o  c #3F0100",
"O  c #271F0C",
"+  c #281F0E",
"@  c #033F00",
"#  c #172119",
"$  c #192018",
"%  c #27200C",
"&  c #28200D",
"*  c #30240E",
"=  c #2F2410",
"-  c #302310",
";  c #3F2F16",
":  c #3F3117",
">  c #3F3019",
",  c #00002C",
"<  c #000034",
"1  c #27003E",
"2  c #28003F",
"3  c #3F003F",
"4  c #202020",
"5  c #2E2B22",
"6  c #2C2C2C",
"7  c #293221",
"8  c #313A29",
"9  c #343434",
"0  c #3F3F3F",
"q  c #400000",
"w  c #4C0000",
"e  c #570000",
"r  c #580000",
"t  c #640000",
"y  c #6E0000",
"u  c #700000",
"i  c #7C0000",
"p  c #412F17",
"a  c #412F19",
"s  c #403017",
"d  c #4A3717",
"f  c #473817",
"g  c #483817",
"h  c #413118",
"j  c #483719",
"k  c #473819",
"l  c #493918",
"z  c #553C1D",
"x  c #5C3F1F",
"c  c #40003F",
"v  c #5E3F20",
"b  c #044000",
"n  c #044C00",
"m  c #035700",
"M  c #045800",
"N  c #3F4100",
"B  c #046400",
"V  c #374A37",
"C  c #394A38",
"Z  c #404000",
"A  c #575500",
"S  c #595400",
"D  c #5D401E",
"F  c #6F6B00",
"G  c #706C00",
"H  c #5D4020",
"J  c #4C4437",
"K  c #4D4439",
"L  c #6B4723",
"P  c #6C4824",
"I  c #744D26",
"U  c #744C28",
"Y  c #01004C",
"T  c #280041",
"R  c #3E0041",
"E  c #340057",
"W  c #350058",
"Q  c #000064",
"!  c #00006F",
"~  c #000070",
"^  c #00007C",
"/  c #410040",
"(  c #480049",
")  c #570056",
"_  c #580057",
"`  c #580059",
"'  c #413F42",
"]  c #440071",
"[  c #6B006F",
"{  c #6C0070",
"}  c #004040",
"|  c #3F4140",
" . c #404040",
".. c #5E5246",
"X. c #5E5148",
"o. c gray36",
"O. c #736353",
"+. c #646463",
"@. c #716F70",
"#. c #6F7171",
"$. c #707070",
"%. c #7C7C7C",
"&. c #9B4C01",
"*. c #814F2D",
"=. c #84542E",
"-. c #89592F",
";. c #865930",
":. c #885830",
">. c #A7683F",
",. c #A9693E",
"<. c #82735E",
"1. c #A76940",
"2. c #A86940",
"3. c #B46F45",
"4. c #B57045",
"5. c #BD7847",
"6. c #BE7749",
"7. c #BC7849",
"8. c #95856B",
"9. c #000097",
"0. c #000098",
"q. c #500085",
"w. c #0100E0",
"e. c #5C61FD",
"r. c #840185",
"t. c #8C8C8C",
"y. c #989896",
"u. c #989898",
"i. c #A9A7A8",
"p. c gray66",
/* pixels */
"H H P H P I U D H H z g z P P U U P P P P H H H v H P U I v z j z H P P H z z z H P P H z j g z D D D z z v P H z g g z D v x g ",
"H H z z z z z z z z H H H H H H P D D D P U U U U P P U U :.:.*.P P P H H H H P P H z g g g g j g g g z z z z f g f g j f g g D ",
"f z x z z z z z z z H v v H z z z z z H H P P H v z g z P U U P z z z j s : s g j s s h s s s s ; h s p s s s s s s s ; s s H H ",
"g = p s - * * & & - s h - - & & - - * - h : h s - & & - h h h - O & - - & & & & & & & & * - & O & & & & & O % & - - & & O O U H ",
"g *                                                                                                                         5.v ",
"g -                                                                                                                         3.f ",
"g -           S Z N                                             O...X.9           r w w q           ~ Q Q < :.U U j         3.f ",
"g -   b b b 6 G S S & y t t q W T T , n b b b r w w q 5 4 4 .   <.O.O.K   u t t q u r r q b b b 6   ^ ~ ~ Y 2.s h H n b b @ 3.z ",
"j -   M n m b G } } & i u u w ] W E 2 B n n b y r r q J 5 5 &   <.O.O.J   i u u w u &.&.q M n n b   ^ e.e.Y 2.:.:.H B n n @ 5.H ",
"z &   M @.$.b G } } & i u.u.w ]  . .2 B b b b u g j q J 8.8.&   <.<.<.J   i u.u.w u r r o M $.$.@   ^ ~ ~ Y 2.:.;.H B $.$.b 3.P ",
"j &   m n n b G S S & i u u w ] E W 2 B b b b u g g q J 5 5 &   <.O.O.J   i u u w u j g q M n n b   ^ w.w.Y 2.:.:.H B o.o.b 2.H ",
"f &   m n n b F S S & i $.$.w ] $.#.2 B n n b u r r q J j g &   <.O.O.J   i $.$.w u r r o M n n b   ^ ~ ~ Y 2.:.;.H B n n b 3.z ",
"g &   M n n b F S S & i u u w ] W E 2 B n n b u r r q K 5 5 O   <.O.O.K   i u u w u r r q M n n b   ^ ~ ~ Y 2.:.;.H B n n b 3.z ",
"g &   M n n b F S S & i u u w ] E E 2 B n n b u r r q J 5 5 &   <.O.O.J   i u u w u r r q M n n b   ^ ! ~ Y 2.:.:.v B n n @ 2.H ",
"d *   M n n b F S S & i u u w ] W E 2 B n n b y r r q K 5 5 &   <.O.O.J   i u u w u r r q M n n b   ^ ~ ~ Y 2.:.:.H B n n @ 5.H ",
"j -   M n n b F S S & i u u w ] W W 2 B n n b u r r q J 5 5 &   <.O.O.J   i u u w y r r q M n n b   ^ ~ ~ Y 2.;.:.H B n n b 7.v ",
"g *   M n n b G S S & i u u w ] W W 2 B n n b y r r q J 5 5 &   <.O.O.J   i y y w u r r o M n n b   ^ ~ ~ Y 2.$.$.D B n n b 6.z ",
"g -   M  . .b G S A & i u u w ] W W 2 B n n b u r r q K 5 5 &   <.O.O.J   i y y w u r r q M  . .@   ^ ~ ~ Y 1.:.:.H B n n @ 3.g ",
"g -   M n n b G S S O i &.&.w ] q.q.T B n n b u  .| o J K J &   <.J J J   i &.&.w y  . .q M n n b   ^ 0.0.Y 2.;.:.H B n n b 3.j ",
"g -   b b b 6 S Z Z   y t t o W W W , n b b b r w w q 5 5 5 X   <.O.O.J   u t t q r w w q b b b 6   ~ Q Q < :.U U h n b b b 4.z ",
"j h 5.5.5.5.3.4.3.3.2.2.2.5.5.3.4.4.5.5.2.2.2.2.5.4.3.3.5.5.2.>.>.2.2.2.7.3.3.7.5.7.4.5.4.4.4.5.5.5.2.3.3.2.3.5.4.4.4.5.5.5.>.D ",
"z z P x P U U v v v z j z P P U U P P P P H H H H H P U P H z j z D P P v z z z H P P H z g g z H H H z z H P H z g j z L h f P ",
"H H g g k z z k z z z z H P I I U P P U U U P P D H D P P P z g g z H P P v z z v v v f l g j j f f j j g g z j g g j g f f D P ",
"H - - O % & & & O - = - - > s s h > s s g g j h > - = s h h s - O - h : > p = = + = = = - - - - = = - O & & & - - - & - - & U H ",
"z -                                                                                                                         5.z ",
"z -                                                                                                                         4.z ",
"L h   :.U U j                   ~ Q Q <                               e w w q                   b b b b                     3.z ",
"L h   2.;.-.H u t t q   _ ( ( 2 ^ ! ~ Y   g s s &   n b b 6 b b b 6   u e e q 5 4 4 . u t t q   M n n b   S Z Z   ~ Q Q <   5.v ",
"L ;   2.> p H i u u w   { _ _ c ^ %.%.Y   v j j &   B n n b M n n b   u j g q J 5 5 & i u u w   M #.$.b   G S A O ~ ~ ~ Y   2.P ",
"v ;   2.:.:.H i u.u.w   { u.u.c ^ ~ ~ Y   z *.=.&   B b b b M #.$.b   u g g q J i.i.& i u.u.w   M n n b   G } } % 9.u.u.Y   2.P ",
"z =   2.:.:.v i u u w   { _ _ 3 ^ +.+.Y   z U =.&   B b b b M n n b   u r r q K 5 5 & i u u w   M n n b   G S S % ^ ~ ~ Y   2.H ",
"f O   2.:.:.H i u.u.w   { _ _ c ^ ~ ~ Y   z d d &   B n n b M n n b   u r r o K i.i.O i $.$.w   M n n b   G S S O ^ %.%.Y   1.v ",
"g -   2.:.:.H i u u w   { _ _ 3 ^ ~ ~ Y   z g g &   B n n b m n n b   u r r q K 5 5 % i u u w   M n n b   G S S & ^ ~ ~ Y   1.j ",
"z s   >.:.:.H i u u w   { _ _ c ^ ~ ~ Y   z g g &   B n n b m n n b   y r r o K 5 5 & i u u w   M n n b   G S S O ^ ! ~ Y   2.z ",
"P s   2.:.:.H i u u w   { ` _ c ^ ~ ~ Y   z g g &   B n n b M n n b   u r r q K 5 5 & i u u w   M n n b   G S S & ^ ~ ~ Y   5.D ",
"P s   2.:.:.H i u u w   { _ _ / ^ ~ ~ Y   z g j &   B n n b M n n b   u r r o J 5 5 & i u u w   M n n b   G S S & ^ ~ ~ Y   5.P ",
"P s   2.$.$.H i u u w   { ` ) c ^ ~ ! Y   z g g &   B n n b M n m b   u r r q K 5 5 & i u u w   M n n b   G S S = ^ ~ ~ Y   3.U ",
"H -   2.-.:.H i u u w   { ) ` c ^ ~ ~ Y   z g g %   B n n b M | ' b   u r r q K 5 7 & i u u w   m  . .b   G S S O ^ ~ ~ Y   4.P ",
"x =   >.:.:.H i &.&.w   [ r.r.3 ^ 0.0.Y   z U U &   B n n b M n n @   u |  .q J J J & i J J w   M n n b   G S S O ^ 0.0.Y   3.v ",
"v ;   -.U U s u t t q   _ ( ( 2 ~ Q Q <   j s h &   n b b 6 b @ b 6   r w w o 5 5 5 . u t t q   b b b b   S Z Z   ~ Q Q <   5.H ",
"P h 7.7.7.7.3.3.3.3.1.1.1.6.7.4.3.4.6.5.1.2.1.2.5.3.3.3.5.6.2.2.2.2.2.2.4.3.3.7.7.7.3.5.4.4.3.7.5.6.2.3.4.2.3.5.3.4.4.5.5.5.2.v ",
"P z P H P U U H H H z f z P P U I P P P P H H H H H P U P H z g z H P P L z z z H P P H D j f z H H H z z H P D z f g z H j j H ",
"U H f f f z z f z z z D H P U U U P P U I I P P H H D P P P z f l z H P P v z z H H z k g g j j j g g g k g z j j j j g g f D H ",
"U = - & O & & & & = = - = > ; > s p : ; g j j h s - - s p > h = & & s s h h * - - - - = - - - - - - = & & & & - * - - - - & U P ",
"U h                                                                                                                         5.P ",
"P h                                                                                                                         5.P ",
"P s             O...X.9           r w w q                           S Z Z           ~ Q Q < :.U U g                 ~ Q Q < 4.P ",
"U h   5 4 4 .   <.O.O.J   u t t q u r r q   8 7 7 $ W 2 2 , n b b b G S S & u t t q ^ ~ ~ Y 2.h s D n b b b ` ( ( T ^ ! ~ Y 4.U ",
"U ;   J 5 5 &   <.t.t.J   i u u w y f j q   V 8 8 7 ] W E 2 B n n b G } } & i u u w ^ u.u.Y 1.:.:.H B n n @ { _ _ c ^ e.e.Y 4.U ",
"U s   J i.i.&   <.O.O.J   i u.u.w u g g q   C u.u.7 ]  . .2 B b b b G } } & i u.u.w ^ ~ ~ Y 2.:.:.H B  . .b { u.u.c ^ ~ ! Y 6.P ",
"P s   K 5 5 &   <.#.#.K   i u u w u r r q   C 8 8 7 ] E E 2 B b b b G S S O i u u w ^ $.$.Y 2.:.:.x B  . .b [ _ _ c ^ e.e.Y 5.P ",
"H -   J t.t.&   <.O.O.K   i $.$.w u r r q   C $.$.7 ] $.$.2 B n n b G S S & i $.$.w ^ ~ ~ Y 2.:.:.H B n n b { ` _ c ^ ! ~ Y 2.z ",
"z -   J 5 5 &   <.O.O.J   i u u w u e r q   C 8 8 7 ] W W T B n n b G S S & i u u w ^ ~ ~ Y 2.:.:.H B n n b [ _ _ c ^ ~ ~ Y 2.g ",
"z -   J 5 5 &   <.O.O.K   i u u w u r r q   C 8 8 7 ] W W 2 B n n b G S S + i u y w ^ ~ ~ Y 2.;.:.H B n n b [ _ ) c ^ ~ ~ Y 2.z ",
"z -   J 5 6 &   <.O.O.J   i u u w u r r q   C 8 8 7 ] W W 2 B n n b G S S & i u u w ^ ~ ~ Y 2.:.;.H B n n b { _ _ c ^ ~ ~ Y 4.H ",
"z &   K 5 = &   <.O.O.J   i u u w u r r o   C 8 8 7 ] W W 2 B n n b G S S & i u u w ^ ~ ~ Y 2.:.:.H B n n b { _ _ c ^ ! ~ Y 3.H ",
"g &   J 5 5 &   <.O.O.J   i y u w u r r q   C 8 8 7 ] E W 2 B n n b G S S O i y u w ^ ~ ~ Y 2.#.#.H B n n b { _ ` / ^ ~ ~ Y 3.H ",
"z &   J 5 5 &   <.O.O.J   i u u w u r r q   C 8 8 7 ] W W T B n n b G S S = i y u w ^ ~ ~ Y 2.:.:.v B n n @ { _ _ c ^ ~ ~ Y 3.U ",
"z &   J J J &   <.J J J   i &.&.w y 0 | q   C b b 7 ]  . .2 B n n b G S S & i &.&.w ^ '  .Y 2.:.:.D B n n @ { K J / ^ 9.0.Y 5.U ",
"f &   5 5 5 .   <.O.O.J   u t t o e w w q   8 7 7 $ W E W , n b b b S Z Z   y t t q ~ Q Q < :.U I > n b b b ` ( ( T ~ Q Q < 5.P ",
"g U 5.5.5.6.4.3.4.3.2.2.2.5.5.4.4.3.7.7.>.2.1.2.5.3.3.3.5.5.2.2.2.2.>.>.7.3.3.7.5.5.4.7.4.3.4.5.5.5.1.3.4.2.3.5.3.3.3.6.5.7.7.v ",
"g v P H P U U H H H z g z P P U I P P P P H H H v H P U P H z j z D P P H z z z H P P H z g g z H H H z z H P v z g j z H H H P ",
"g g k j j z z j z z z z H P U U U P P U I I P P v H H P P P z g g z H P P H v z L z z d g j j g g f k j g g z f g g g g g g k k ",
"- * = & & & & O & - - - - s : > p s p p g g g p : - = ; s s s - & - > : > > & = - - - & - - - - - - - & % & O - - - - - - = - - "
};
