/* XPM */
static char *e2201ae58de147bbfa34bad7e747d4d0GYdGIZL7vdcwa9Vz[] = {
/* columns rows colors chars-per-pixel */
"64 64 207 2 ",
"   c black",
".  c #010000",
"X  c #000100",
"o  c #010100",
"O  c #010101",
"+  c #020001",
"@  c #000002",
"#  c #010002",
"$  c #1B1B1B",
"%  c #1C1A1B",
"&  c #1A1C1B",
"*  c #1C1C1A",
"=  c #1D1B1C",
"-  c #1B1D1C",
";  c gray11",
":  c #1D1D1D",
">  c #1C1C1E",
",  c #271F0A",
"<  c #271F0C",
"1  c #2A1F0B",
"2  c #291E0C",
"3  c #2A1F0D",
"4  c #281F0E",
"5  c #27210B",
"6  c #27200D",
"7  c #27200E",
"8  c #28200B",
"9  c #28200D",
"0  c #28210E",
"q  c #29210E",
"w  c #2F230D",
"e  c #2F220F",
"r  c #2E230F",
"t  c #31220F",
"y  c #32230E",
"u  c #30240E",
"i  c #2F2211",
"p  c #2F2410",
"a  c #2F2412",
"s  c #302310",
"d  c #322310",
"f  c #302312",
"g  c #312411",
"h  c #332411",
"j  c #202020",
"k  c #202022",
"l  c #2C2C2C",
"z  c #2C2C2E",
"x  c #30302E",
"c  c gray19",
"v  c #373735",
"b  c #373737",
"n  c #383836",
"m  c #393738",
"M  c #373938",
"N  c gray22",
"B  c #393939",
"V  c #38383A",
"C  c #3F3F3D",
"Z  c #3F3F3F",
"A  c #473715",
"S  c #463716",
"D  c #473716",
"F  c #493615",
"G  c #4A3716",
"H  c #4A3717",
"J  c #473817",
"K  c #483816",
"L  c #483817",
"P  c #473618",
"I  c #483719",
"U  c #473819",
"Y  c #483918",
"T  c #493918",
"R  c #553D1B",
"E  c #563C1B",
"W  c #553A1C",
"Q  c #543B1C",
"!  c #563B1D",
"~  c #533C1C",
"^  c #553C1D",
"/  c #543D1D",
"(  c #563E1C",
")  c #553C1E",
"_  c #543D1E",
"`  c #573C1E",
"'  c #563D1E",
"]  c #3E403F",
"[  c #6B4723",
"{  c #6D4723",
"}  c #6B4725",
"|  c #6B4923",
" . c #6C4923",
".. c #6B4924",
"X. c #6C4824",
"o. c #6D4925",
"O. c #6E4824",
"+. c #6C4A25",
"@. c #6C4826",
"#. c #7F4F2B",
"$. c #7E502C",
"%. c #413F40",
"&. c #3F4140",
"*. c gray25",
"=. c #414141",
"-. c #404042",
";. c gray28",
":. c #484846",
">. c #494748",
",. c #474948",
"<. c #484848",
"1. c #494949",
"2. c #48484A",
"3. c #535353",
"4. c #545452",
"5. c #535355",
"6. c #555354",
"7. c #535554",
"8. c gray33",
"9. c #555555",
"0. c #565455",
"q. c #545456",
"w. c #5B5B5B",
"e. c #5C5C5A",
"r. c #5D5C5A",
"t. c #5B5B5D",
"y. c #5D5B5C",
"u. c #5B5D5C",
"i. c gray36",
"p. c #5D5D5D",
"a. c #5C5C5E",
"s. c #5D5D5F",
"d. c #6F6F6D",
"f. c #6F6F6F",
"g. c #6E706F",
"h. c #70706E",
"j. c #71716F",
"k. c #716F70",
"l. c #6F7170",
"z. c #6F7072",
"x. c gray44",
"c. c #717171",
"v. c #707271",
"b. c #707072",
"n. c #7B7B7B",
"m. c #7C7C7A",
"M. c #7D7B7C",
"N. c #7B7D7C",
"B. c #7C7C7C",
"V. c gray49",
"C. c #7C7C7E",
"Z. c #804E2B",
"A. c #814F2C",
"S. c #804F2E",
"D. c #80502A",
"F. c #80502C",
"G. c #81512D",
"H. c #82502D",
"J. c #915C32",
"K. c #905D32",
"L. c #905C34",
"P. c #915C34",
"I. c #905C35",
"U. c #9A5F37",
"Y. c #9B5F3A",
"T. c #9B6038",
"R. c #9C6139",
"E. c #B46F45",
"W. c #8B8B8B",
"Q. c #8A8C8B",
"!. c #8C8C8A",
"~. c #8D8D8B",
"^. c #8D8B8C",
"/. c #8B8D8C",
"(. c gray55",
"). c #8D8D8D",
"_. c #8C8C8E",
"`. c #8D8D8F",
"'. c #979797",
"]. c #969895",
"[. c #989896",
"{. c #999798",
"}. c #979998",
"|. c #989898",
" X c gray60",
".X c #98989A",
"XX c #99999B",
"oX c #A7A7A7",
"OX c #A8A8A6",
"+X c #A9A7A8",
"@X c #A7A9A8",
"#X c gray66",
"$X c #A9A9A9",
"%X c #A8AAA9",
"&X c #A8A8AA",
"*X c gray70",
"=X c #B5B3B4",
"-X c #B3B5B4",
";X c #B4B4B4",
":X c gray71",
">X c #B4B6B5",
",X c gray75",
"<X c #C0C0BE",
"1X c #C0C0C0",
"2X c #C1C1C1",
"3X c #D0D0CE",
"4X c #D0D0D0",
/* pixels */
"i.B.8.u.;.<.B.B.c.8.i.-.c.c.k./.(.B.B.^.B.(.(.(.h.i.B.c.!.(.(..X.X.XB.(.(.B..X!.h.c.3.(.k.c.(.$X$XoX$XW.(.B.(..X[.^.(.(.(.$X.XB.",
"^ o.o.^ ^ g S K o.K o.Q Q ^ t I Q F.B.(.n.B.B.7.b N c.w.5.7.7.B.8.e.i.B.B.c.i.B.z.c.i.i.l j 8.h.B.c.w.c.k.c.<.8.y.8.i.i.8.i.8.8.",
"} Q Q s X.Q F.^ X.^ o.o.o...J g K F...(.(.c.u.i s s Q Q ..H K Q F.Y s ^ ^ H o.Q g s s K Y q 5 i s s s s s h Y ^ s e S K ^ ^ Y Q ",
"[ o.F.^ o.D.F.Q o.Q Q ^ #.^ s 7 s ^ ^ F.W.(.;.3 q g K ^ o.s s Z.Y K S A.J ^ ^ K ^ ^ Q J s i H i Y K ^ K K s ^ ^ u q s ^ s s ^  .",
" .X.o.[ o.~ #.o.F.Q ^ ^ ^ A.F.Y s K ^ ~ e.z.8.g 3 7 ^ ^ ^ J  .o.^ ^ ^ J e ^ o.Q ^ ^ ^ ^ ^ | E s X.Q K K o.s K ` t q s ^ ^ Y H H ",
"Q X.F.[ ^ ^ | ^ ^ ..g K s ^ ^ ^ ^ K ^ B./.i.8.e q s p e ^ K  .^ ^ s ^ ^ s ^ Q o.^ o.E J Q g | u H Y e J ^ ^ ^ H s I K s s K ^ ^ ",
"s H ^ o.^ ^ o.^ ^ s ^ ^ K K Y Y s s g (..Xe.<.i < q i t J ^ s ^ Y s H | K ^ s s Q A.^ Q o.E ^ ^ J s Y U s ^ ^ ^ i Y e K s e ^ J ",
"s s i p s t S H s f s s Y e H I s u K (..Xh.c.8.K s q < p ^ q r 3 , q S o.^ ^ s g s ^ Q H s e H K s H ^ Y ^ s Y e 3 q s s q s i ",
"m N %.8.i.8.<.,.8.8.<.-.-.<.y.8.*.j 5.(.OXc.c.W.8.<.s s s U s s i p 7 s s s s s s s s K s s s q s 8 s s t q 5 7 7 q g g s s q q ",
"8.i.i.h.c.f.c.B.B.B.B.B.c.g.(..Xx.c.n.i.B.W./.(.c.(.B.(.i.<.<.<.7.6.8.8.8.7.i.7.i.8.5.<.:.-.-.* ; ; ; = % - * = ; & ; ; ;.8.<.Z ",
";.<.<.<.6.i.i.8.-.<.8.8.i.e.c.8.<.8.c.&.i.c.<.h.N.B.B.c.i.(.M.y.(.B.i.t.z.c.c.i.B.B.w.<.<.<.i.; X X X X X X X X X X = m <.<.-.Z ",
"Q ^ ^ ^ e s s s s g s s s 7 3 t s s i g s K i i K ^ ^ ^ K } X.o.^ Q ^ ^ u i e s s Y Y K s <.8.; X X X X X X X X X X ; N <.<.s u ",
"^ s H F.o.^ o...Q X.F.^ ^ s s Y K ^ ^ F.^ s e s s ^ I Y ^ s H ^ Y Y E ..p ^ s s Y Q i t p q c.$ X X X M./.{.}./.X X ; n 8.8.s q ",
"Y X.^ ^ F.D.^ | ^ X.o.^ o.Q s s ^ o.^ ^ A.^ s < s s s t F.^ Y H Y K  .D.o.^ ^ s Q Y q 7 g e i.= X X M.$X=X-X-X+X^.X ; N c.(.E t ",
"i ^ Y g ^ K Q o.D.^ ^ o.Q q s I s Y Q o.F.^ s q ^ K s 3 Y Q ^ S t i ^ ^ ^ K X.I Y s 3 2 q q C ; X X -X1X1X1X1X:X@XX ; N B.W...^ ",
"g g g e e 7 H E o.^ s Y ^ K s s s s s ^ Q o.s s s s J J ^ s s K H i ^ ^ o.^ Y Q s 3 7 5 7 8 i.; X X 1X4X{.4X1Xn.+XX = m i.|.c.Z.",
"J t s q s s s s i g J ^ g Y g p g s g e K g 5 t 7 i a 7 s Y ^ H s g g ^ ^ ^ i g q 7 7 < 7 q 8.; X X X = M.- m :X/.X $ M k..X/.A.",
"N.g.8.8.k.N.N.k.M.N.c.[./.^.(.(.x.c.B.B.B.(.z.e.a.s.t.t.,.y.m.z.<.,.7.8.e.<.q s 2 7 3 q q j 8.; X X 1X|.,.{.,X2XM.X = M N.+X}.M.",
"i.B.c.k.>.u.y.B.u.k.M.B.k.B.N.(.Q.^.8.8.8.8.C j -.7 j N %.%.7.4.8.(.B.i.N.i.i.c.m.B.'.(.W.[.8.; X X X M.*X2Xm y.- X = m B.(./.x.",
"^ K Y Q ^ g ^ ) ^ ^ Q  .^ E B.(..Xc.i.% ; = ; ; ; ; ; = - - - = 8.(.(.B.N.>.B.i.x.c.c.(.5.<.i.; X X X u./.+XN.X X X = M i.z.k.Q ",
"r K K e a 3 7 i 7 e ^ t s ^ | o.M.}.y.- X X X X X X X X X X - m -.B.$Xm.c.,.z.m.n.N.c.w.(.m.y.; m N N c j j k k j c b b c.^ s s ",
"g t X.F.s s 7 q 3 s q q s s Q K ..{.7.= X X X X X X X X X X = M Z B.c.s s s t i 3 i H e ^ ..J  .Q s f s Q Y Y s Y s K q i s Y ^ ",
"^ q t ^ s s K s q s 1 s s Y H s Y {.6.- X X X 2XOX.Xn.k.X X - m c.$XW.L.s s i q g r s u t ^ o.F.o.K s s s s Y ^ s s s s g i q s ",
"^ ^ o.s ^ ^ ^ s 3 q s Q s s K ^ L.@X7.= X X @X{.[..X].N.k.X - m 6.!.^ F...t J K K i q s i g ^ K I K 3 q ^ s 3 s s s u i t q < q ",
"^ ^ g i o.t K ^ F.i s g K ^ g i X.(.i.; X X +X+X1X1X1X.Xc.X = M 7.^.s s U.L.| Q F.Y q q e s F.F.K Y t q s s s s D.p s s s s s Q ",
"D.F.^ D.$.H 7 p ^ o.^ K ^ F.^ ..Z.[.-.; X X }.3X4X}.3X2Xk.X - m m z.e ^ ^ o.L.^ #.^ t s q s S E.F.F.i s s s s s F.^ Q Y s s 3 3 ",
"L.Q g ^ ..s s F.I h p s J ^ } o.^ e.e.; X X {.M - M.= M h.X ; N ; <.s i $.L.o.A.F...K s q q < J L.F.Q ^ ^ ^ ^ ^ Q s Y ^ s s ^ ^ ",
"D.o.I J o.D.^ K s Q Q Y ^ t ^ ^ ^ z.c.; X X }.1X4X,.{.1X.XX ; N C B.s q Q A...[ T.Y s i t J t ^ F.#.L.J ^ Y s F.o.^ Q F.J s i ..",
"^ K K Q ^ s H #.s ^ K Y s ^ F.F.J.$X8.- X X X m {.}.B.N X X ; N x.$XH q Q D.I L. .L.L.L.H I Y K ^ o.H J ^ Y s Y ^ ^ ^ ^ F.R.s ^ ",
"g s s u s s q s s ^ p J U K ^ ^ (.(.i.; X X X u.M.n.i.N X X ; N x.oX*.3 s s s o.o.Z.} A...e s s Y Q p J s s Q ^ g e i 3 K K q s ",
"s u g s s e < 8 u s s E ^ ^ o.F.(.B.-.; m m M c j j j j k c N n x.oX(.B.F.^ X.L.F.} o.#.#.^ o.} ^ F.^ s Q s ) F.K ^ P Y ^ ^ ^ ^ ",
"B.B.c.M.c.c.c.;.8.:.<.c.e.i.(.B.B.B.Z Z &.7.y.z.u.6.7.y.8.i.-.-.8.!.{.$X.X(.(.{.!..XoX$XOX.XoX|.$XoX|.c.$X`.B.@X$X$X$XoX$XoX$X.X",
"c.B.m.g.c.8.m z -.N l N :.y.i.i.c.c.i.8.<.<.x.c.B.B.B.k.4.B.^.$X.X.X!.B..X.X[.OXW.7.M.^.N.{.(.(.$X{.c.}.c.u.i.i.c.5.B.B.(.m.(.(.",
"^ ^ A.L...~ ^ s t s s s s s q s i s s s s s i i f s s s s s e s q B..X(.[.(.[..Xu.H Y s ^ J Y s S s t i e g s s 7 t s u q < Y s ",
"o.F...A.F.F...X.^ e K u q e s s s s i s s u s s f s s s s s s E e s B..XB.(.:XB.e s s H ^ o.Q o.Z.o...o.H P I Q H K K ^ Q ^ I t ",
"^ ^ ^ A.X.o.o.#.D.| [ o.[ o.s s s s s s s s s s s s g g s Y s Y s s c.].8.<.(.T.o.^ Q Q ^ ^ o.Q ^ ^ #.Q ^ E Q o.^ ^ Y A.o.#.o...",
"^ ^ ^ D.^ o.~ o.F.o.$.o.[ F.F.K s s s s f s s s s s s s s s s ^ ^ s c.=X.X(.c.o.o.^ o.o.Y Q ^ K ^ ^ E ^ ^ J s ^ S o.~ o.Q F.o.X.",
"i ^ ~ o.F.#.o.#.F.F.D.$.o.L.F.Q s s s u s s s s s s s s K t s K s ^ n.*X$XOXD.^ ^ ^ Q ^ Q X.X.I Q o.H i ^ ^ ^ s ^ Q o.F.s L.F.A.",
"s Y ^ i ^ o.Q  .L.A.L.D.Z.$.R.R.A.o.^ g s s s s q s s Q E g s s s Q f.*X$X[.o.^ s ^ Y s X.Q ^ o.^ Q o.| ^ o.e s s X.o.| i e ^ ^ ",
"s u K ^ ^ o.^ H $.o.F.F.o.F.T.Y.L.L.F.F.^ s i s < s s s K I K s s s ,.=X@X.XK e s s s s s s s Q o.S Z.o.K s < s H Q ..E r ^ H s ",
"s K J g e o.^ ^ ^ o.^ F.F.S.L.L.L.F.L.F.o.K s s t J K K Y s g K s g 8.:X=X_.Q s s s s s q e s K ) _ _ U q < q 7 r t i r g K g J ",
"s s t J K Y ^ ^ S ^ s s ^ F.L.A.#.o...A.Q I ^ q I H Y s f s t i s ` i.[.-X$Xc.I ^ A.^ s s e q t P _ ) a i q < < s p i 3 q e g t ",
"s t s t ^ ^ ^ ^ K ^ i < s ^ D.F.F.L.#.F...H t ^ ^ o.Q Y q i q t ^ ^ c.}.@X!.@X+X.X^..X(.8.8.8.8.&.k -.7 j N *.&.8.7.6.,.6.s q , ",
"c.x.B..X+X{.{./.(.(.(.x.(.B.B.B.x.c.c.n.n.c.e.c.(.(.(.(.k.y.g.c.c.8.z.y.y.N.^.N..X(.W.c.i.; ; = = $ ; ; ; ; > = ; = 7.6.u.u.6.7.",
"8.4.i.g.N..XOX(.Q.$Xn.|./.+X= = j = ; = ; = - $ ; ; ; (.(./.B.c.k.u.,.i.<.i.c.e.h.(.(..Xi.; X X X X # X X X X X ; N -.<.m n 6.8.",
"< 7 2 q i e s s ^ o.c.4.y.N.= X X X X X X X X X X ; N i.i.g e e K s t i s s s s p s s w.8.; X X X X X X X X X X ; N Z ^ p i 7 q ",
"t u s s s K s s ^ g ^ s i k.; X X X X X X X X X X = N 8.^ Y ^ g ^ L.$.t H s s e s q < q 4.; X X X ^.{.}.!.B.X X ; N c.u 7 t q e ",
"Y s K ^ ^ $.o.} F.^ ^ J t z.= X X X X X X X X X X ; N 6.Q Q K i ^ E ^ ^ ^ Q s q q q q < 8.- X X ^.@X-X=X;X$XB.X ; N 4.Z e 7 s 3 ",
"s t ^ ^ ^ F.F.D.F.^ X.H 3 B.; X X X +XoX}.^.B.X X - m 4.` ^ s t #.o. .T.J.J e q 3 8 8 7 e.; X X @X=X2X1X<X2X*XX = N 8.i.s i t 7 ",
"s s i ^ | ^ F.L.X.^  .^ t z.= X X @X1X1X=X@XB.z.X = m u.Q o.o.^ ^ Q o.o.$.e q q q 7 q 2 -.= X X +XN.1X4X.X4X2XX ; N (.B.8.q 8 7 ",
"g e t J ^ ^ o.o.o.o.Q s 7 >.; X X =X1X1X1X:X+XM.X ; N -.s s  .o.^ [ ^ ^ D.Y q e < , q 5 i.; X X /.=XM = B.$ X X ; M B.B.8.Y u s ",
"e g e q t ^ S ^ ^ ^ Y s t 7.= X X 1X{.4X1Xu.N.XXX ; N i.s E ^ ^ ^ ^ ^ ^ A.K e g < q 7 3 c.; X X M.1X1X}.<.{.1XX ; N (.(.6.s s s ",
"7 q 3 t 7 t q s ^ J t q 7 e.- X X X M.- b @X.Xz.X = m c.3 e Y ^ u i Q ^ X.X.Q r q t 7 q 8.; X X - y.N 2X*XB.X X ; N c.XXc.^ ^ q ",
"i.e.g.B.c.$.^ K o.^ ^ K i.c.= X X 1X,.{.2X1X1X# X = v 8.c.i.B.z.c.c.c.(./.N.c.t i i E e i.* X X X X n.$X(.i.X X ; b x.(.|.oX(.c.",
".X(.^.x.!..X.X(.i.n.(..X(..X& X X X *X2Xn.i.@ # X ; N i.'.(.(.B..XOX'.$XOX$XB.(.B.B.[.B.] * N N b c j j j j j c b N c.M.B.(.B..X",
"n <.i.8.8.8.4.z.8.<.y.c.c.^.; m N N c j j j k 7 c m N .X.X[.$XoX$X.X@XoX.XOX.X.X$X!.(..XZ Z -.6.y.z.i.3.8.i.8.i.-.-.8.<.8.e.t.:.",
"^ J ^ H K s g s s u i.c.i.-.4.i.k.i.8.7.w.5.e.z.k.c.c.i.x.c.[..X.X[./.(.(.W.c.x.z.A.^ Y Q o.X.X.^ ^ ^ J Q o.^ K K K g t q e K g ",
"J.[ ^ Y ^ K s s g ^ ^ F.^ $.g K I Y Y H P K J J ^ Q s q S e..XN.^ K e I ^ I U S K Q ^ K ^ ^ X.X.J o.K i S o.K K ^ ^ K ^ t g ^ ^ ",
"^ $.F.^ F.^ Q ^ | ^ ^ F.^ K ^ ^ o.^ X...o.E ^ e F.H s s u <.}.*XB.| ^ ^ X.o.^ [ o.o.^ ^  .H ..X.t ^ H E ^ ^ J S Y K Q ^ Y P ^ ^ ",
"^ o.#.o.A.o.o...E J ^ ..Y F.^ s ^ ^ Q o.#.^ ^ ^ s e s s Y N f.:Xc.E ^ ^ Q Q o.D.$.o.^ ^ Q ^ X.X.P ^  .^ J o.J o.Q I s s ^ o.^ ..",
"^ Q ^ Q ^ D.o.E K ^ S o.K Q X.s J ^ K Y Q Q ^ ^ Y g s ^ u.x.|.oX.XQ Q o.o.X. .Q o.^ K E ^ K ^ o.^ ^ o...^ ^ g F.^ ^ K s s s ^ o.",
"^ ..o.o.J J K ^ s K K ^ Y s A.Q E J ^ ^ Q s s s [ i.i.8.c.!.|.|.!.o.^ o.A...^ U s s s s p g r u p ^ Y K K K i K ^ s s Y Y s ^ { ",
"c.B.^.(.{./.(.B.(.B.h.c.h.z.(.c./.M.h..X$XB.(.B.(.B.y.8.8.c.i.8..Xh.[ F.^ [  .A.f.!.(.(.(.(.(.e.i.w.y.J t i g ^ ^ ^ s ^ ^ J ~ D.",
"^.[.$X.X/.+Xc.e.c..X.X(.(.k.$X^.{.$X@X{.$X$XW.(.(.!.$X(.(..XB.c.B.(.!..XQ.$XoX$X.X[..XoX$X$X$X.X$X$X*X$X.XOX$X].(..Xm..XOX.XB.y."
};
