/* XPM */
static char *_4763_39e8395e837b40f63c51073ebc895c9a2451b342ce2650a0e69ec0fb4abc0ad6[] = {
/* columns rows colors chars-per-pixel */
"64 64 221 2 ",
"   c #010201",
".  c #0A0101",
"X  c #020901",
"o  c #02020A",
"O  c #0B030A",
"+  c #02090A",
"@  c #0C0B0A",
"#  c #090B00",
"$  c #110100",
"%  c #15080B",
"&  c #0B1C0C",
"*  c #0E150E",
"=  c #1A1C05",
"-  c #15150D",
";  c #1B140C",
":  c #141A0D",
">  c #1B1B0D",
",  c #151904",
"<  c #030113",
"1  c #0B0010",
"2  c #190E14",
"3  c #140D1C",
"4  c #1B0E1B",
"5  c #130D16",
"6  c #0D1A14",
"7  c #0D1619",
"8  c #141513",
"9  c #1B1514",
"0  c #141B14",
"q  c #1B1A15",
"w  c #15141B",
"e  c #1B151C",
"r  c #151A1B",
"t  c #1C1B1C",
"y  c #360201",
"u  c #3C0102",
"i  c #3C0900",
"p  c #3B010B",
"a  c #350309",
"s  c #221C0E",
"d  c #231409",
"f  c #211515",
"g  c #211A14",
"h  c #22151A",
"j  c #211C1B",
"k  c #2A1419",
"l  c #2F0911",
"z  c #172109",
"x  c #19210A",
"c  c #142014",
"v  c #1B2215",
"b  c #1C201D",
"n  c #11221C",
"m  c #3E3D01",
"M  c #383C0B",
"N  c #22231B",
"B  c #242217",
"V  c #1C0E23",
"C  c #1F0F2C",
"Z  c #0E1620",
"A  c #161423",
"S  c #1B1523",
"D  c #151B24",
"F  c #1C1A23",
"G  c #1C152A",
"H  c #1C1B2A",
"J  c #14172A",
"K  c #221523",
"L  c #221A24",
"P  c #231B2A",
"I  c #221330",
"U  c #230E21",
"Y  c #1C2123",
"T  c #242424",
"R  c #242824",
"E  c #2A2A27",
"W  c #24222A",
"Q  c #2A2A2A",
"!  c #2B2629",
"~  c #333333",
"^  c #3B3B3B",
"/  c #34383B",
"(  c #2E3523",
")  c #440101",
"_  c #4C0201",
"`  c #44020A",
"'  c #4B010A",
"]  c #4B0C03",
"[  c #530102",
"{  c #5C0102",
"}  c #560901",
"|  c #53020B",
" . c #5A010A",
".. c #560A05",
"X. c #4A0112",
"o. c #440312",
"O. c #560414",
"+. c #640102",
"@. c #6B0102",
"#. c #64020B",
"$. c #6A010A",
"%. c #650A02",
"&. c #730101",
"*. c #7B0100",
"=. c #740009",
"-. c #7C000A",
";. c #7A0311",
":. c #433B02",
">. c #433C08",
",. c #3C4302",
"<. c #3B4107",
"1. c #434201",
"2. c #41440C",
"3. c #48440C",
"4. c #484902",
"5. c #554D02",
"6. c #5D4D00",
"7. c #4E5400",
"8. c #4E5703",
"9. c #545401",
"0. c #5B5302",
"q. c #555A01",
"w. c #5B5A03",
"e. c #51530B",
"r. c #5B520A",
"t. c #595D0A",
"y. c #5A5515",
"u. c #625C02",
"i. c #605700",
"p. c #5D6400",
"a. c #526001",
"s. c #656C02",
"d. c #6C6B02",
"f. c #686A07",
"g. c #736C01",
"h. c #786601",
"j. c #6D7201",
"k. c #6D7009",
"l. c #717200",
"z. c #7C7E01",
"x. c #6F6E14",
"c. c #3B3F40",
"v. c #444444",
"b. c #4A4A4A",
"n. c #4E474E",
"m. c #535353",
"M. c #5C5C5C",
"N. c #646464",
"B. c #6D6D6D",
"V. c #737373",
"C. c #7C7C7C",
"Z. c #820104",
"A. c #840005",
"S. c #837E01",
"D. c #8C7D03",
"F. c #837C0C",
"G. c #887E0B",
"H. c #7C8401",
"J. c #7D8A01",
"K. c #7E8509",
"L. c #798806",
"P. c #7F8211",
"I. c #838402",
"U. c #8A8402",
"Y. c #848A01",
"T. c #8A8902",
"R. c #84850A",
"E. c #8B840C",
"W. c #828B0A",
"Q. c #8B880A",
"!. c #968706",
"~. c #8A9000",
"^. c #9C9403",
"/. c #959B02",
"(. c #9C9B02",
"). c #949605",
"_. c #8A8412",
"`. c #868712",
"'. c #A29701",
"]. c #A29D01",
"[. c #AF9E08",
"{. c #97A301",
"}. c #9BA000",
"|. c #8FA304",
" X c #A3A101",
".X c #ACAC01",
"XX c #B2AD02",
"oX c #BCAD02",
"OX c #B5A909",
"+X c #A7B100",
"@X c #ACB202",
"#X c #B4B100",
"$X c #B6B306",
"%X c #B8AF12",
"&X c #C7A707",
"*X c #FFBD0D",
"=X c #FAC205",
"-X c #828282",
";X c #8C8C8C",
":X c #939393",
">X c #9A9A9A",
",X c #949C8F",
"<X c #A5A5A5",
"1X c #AAAAAA",
"2X c #B4B4B4",
"3X c #BBBBBB",
"4X c #BEBDC5",
"5X c #C1C1C1",
"6X c #CECECE",
"7X c #D1D1D1",
"8X c gainsboro",
"9X c #DDDDD5",
"0X c #D2D2C8",
"qX c #ECEBEC",
"wX c gray88",
"eX c #FDFBEE",
"rX c #FBFDF5",
"tX c #FDF7FD",
"yX c #F5FBFD",
"uX c #FEFCFE",
"iX c #F3F6F3",
/* pixels */
"R Q T ! Q Q R Q ! Q Q R Q T W E R E W R Q E T ! W Q R E L Q Q E E Q R T E W Q R ! E W Q R E E R W Q R ! Q E E Q T Q W R ~ T T E ",
"2X2X3X2X2X2X2X2X2X2X2X3X2XB.t T ! 3X2X2X2X2X2X3X2X2X2X2X3X3X1X2X1X2X2X3X2X2X2X2X2X2X2X2X2XM.T E Q 2X2X2X2X2X2X2X3X2X2X2X2X2X3X2X",
"B.;XB.C.M.C.V.C.;XB.V.N.M.v.  Q E 1XC.B.m.m.N.B.C.V.V.C.C.B.V.V.-XC.;XC.V.C.C.N.N.V.1XC.-Xv.  Q R 2X;XV.;XC.C.C.C.V.:XC.>XV.M.V.",
"V.C.;X:X-XC.;X;XB.B.C.V.M.b.  T ! 3XN.B.V.C.m.C.C.B.;X;XC.B.C.C.C.-X:XC.C.C.C.C.;X2X-XC.C.b.  W W 2X-XV.>XC.C.C.>XC.B.C.N.:XN.;X",
"C.;XB.N.C.C.V.V.B.C.V.V.;Xb.  E T 2XB.C.-X-X-XC.B.N.C.<X;X:XC.V.C.-XC.C.C.B.C.N.C.C.C.C.-Xb.. R Q 2XV.C.>X>X-X-X>XV.:XC.N.N.:XV.",
"C.N.N.C.C.B.-XC.-XB.B.C.C.v.  ! ! 2X;X;XC.;XC.C.C.;X-XV.C.;X>X-XC.:XC.C.C.;XM.B.;X;X;X-XV.c.  ! T 3X>XC.;XV.C.C.-XB.C.N.C.B.1X;X",
"-XV.V.C.C.C.;XV.B.C.C.C.C.b.  Q R 2XC.:XC.C.B.N.V.C.:X;X;XC.B.C.V.V.N.V.:XC.C.N.;XC.C.C.<Xb.  R E 2XC.-XB.B.N.-XV.C.V.:XC.N.B.N.",
"C.C.B.:X;XC.B.B.^ N.m.m.m.~   W R -XC.b.m.M.m.b.M.M.M.N.M.m.v.c.v.m.n.M.v.N.v.b.M.c.v.N.b.~   Q E -Xn.m.B.V.;X;XC.C.N.N.;XN.:XB.",
"v.v.v.b.v.b.v./ E E H F N t o ! ! ~ q N F N W H W j q Y Y N j T F j q T P L N Y T T F j N j o W ! ( R E E / c.n.v.m.v.v.b.b.v.b.",
"O               X   o     X         X o o   X       o           +   X       o       o X     . X o X o   #                       ",
"0 E t t R t 0 t   w 9 j 0 * F t w 9 F - r A 8 8 x r > K ; ; w J & : r H 0 D 2 f 9 t w 0 w t 8 t q w r g f 5 r   F T t b b T T t ",
"Q 2X2X3X2X2XC.m.  B 8 2 e g 9 q.T.I.j.4 g.Q.I.k A 9 q. X(.W.8 e t 3.5.4 t F J.I.I.I.q.s e.0.0.0.; q 9 K d.t.w   8XwX2X2X2XM.t ! ",
"W 2XV.C.V.C.v.~   A w.q.t.9 x.I.U.I.f.j 9.I.U.H.A w.(.^.^.T.q.j ).'.'.(.9 G H.U.T.U.q.2 9.q.u.5.q.e e .X.X.Xe   7X2X:X1XC.b.O T ",
"E 3XN.B.C.C.b.^ + 9 9.0.9.V d.U.R.H.j.9 q.Y.H.I.> m I.].^.).1.m ].'.XX Xd.d r.I.H.H.8.j q.q.5.y.e.9 m $XOXOXg   6X2X>X;XN.b.  R ",
"E 2XB.-XC.V.b.v.  e 0.q.,.q j.I.U.F.l.K 5.F.U.I.,.e J.{.}.W.h 8.).@X}.).{.>.9 J.E.I.r.f 0.6.r.q.q.<.w.XXoXXXe   wX<X>XC.C.v.X Q ",
"W 2XV.B.N.C.m.~   4 r.q.G r 8 h 9 Y 0 0 : q 8 t 0 A w - t 9 w t 9 9 H q > S A 0 9 w 0 0 8 t t r 9 9 e.XXoXXXG   6X:XN.B.V.b.  T ",
"E 2XV.N.;XV.n.^   : J 9 9 t - D [ [ X #.#.+.+.  r :.>.2 u @.+.{ u     ) [ X .     $ u  .+.&.@.  9 t m #X$XI.A   7X3X>XC.C.v.  Q ",
"R 2XV.C.;XC.M.c.  G q f s.H.K.> [   u ] [ %.@.[ & XX%Xq p [ &.=.[ p X   o '       X.X   p p   O q w - 9 >., > o 7X<XM.N.B.b.@ T ",
"Q 2X;X;XC.C.m.~ O , r q.T.U.T.S #.X ' *.+.+.#.{ ; [.@X0 `   Z.&.&.$ . @.) #.`   ) _ { u   . X [ F w.9.e D : 9   2X:X:XC.:Xv.  Q ",
"E N.v.b.v.b.~ t   F J s.F.U.z.9   .   [ +.@.@.i F ^.XX: _ _ _ -._ y ) @.{ { )   ..+.+.+.' . ' +.0 0.6.w.V ,.e   N.N.v.v.b.v.  T ",
"E t             o 8 0 h I.Q.z.g   + p X ) +.#.u A @XOXg -.p X $..   @.@.{ +.|   ) _ @.{ ) X _ } 0 r.5.w.t M j                 W ",
"W b L t N R t 8   q t 9 1.K.K.8 ` _ { u X X .   x (.h.0 ) . X .   + u +.[ _ X   ) { @.+.a   ' +.8 q.4.9 6 8 9   R E T t t T N Q ",
"2X3X2X3X2X1XC.m.  e H.:.9 H - N ` [ +. .[     ) A 6 r >   y O   X y   X o X u O   X ) u + <   +.e 0 t V e q q   uXqX2X2X3X2X2X2X",
"N.N.N.C.C.N.v.~   t I.I.> : G - [ @.{ +.+._   [ 0 K h.D [ +._ + _  .+.)   ) [ _ `     u ) )   X A : ,.q.0.q.8 o 2X>X1X;XC.V.V.N.",
"B.V.C.N.B.;Xv.^   : U.G.,.: U.r _ #.@.[ #.) ) @.U 9.{.: [ { [   {  .[ $.- 0 e e w D r 9 e g 7 t t >.5.q.0.5.-   <X5X>XC.C.>XB.C.",
"C.V.C.C.C.>Xm.^   q D.Y.A H S.t X | [ @.[ _ X ) b ,./.L +.+.[   _ _ %.[ U %XJ.6 u.d.5.N q.p.u.0.- 1.5.7.9.u.0 o 7X4XV.-XV.N.V.C.",
";X>XB.-X;X;Xm.~   J U.H.q 8 U.-     X.    X   p - h.T.J [ ) o X u { { [ n OXS.q f.h.w.6 0.h.f.q.q :.w.p.0.0.9 o <X>X:X-X;XV.V.;X",
"C.;XB.C.;X-Xm./   8 I.L.A ,.H.t [ X .   _ ) $   L * H 2 o X )   o X u ) h ; k 8 e t d A 9 g r r D h 9.4.3.f q   2X<XB.C.V.-XV.>X",
"C.>XB.B.C.V.v./   t 1.0 S s :.r < . _ i p )       %..     ) _ { u o   ] u a   X p X ) )     # ) * g g > e ; S   1X5XB.V.C.;X-X;X",
"C.C.N.V.B.B.m.~   e K 0 f 9.:.r . p @.&.&.@.'   @.&.$.o _ { { { u + @.=.#.+.p   _ [ =.+.#.X { { 0 e.3 A F 7.F   2X<XV.;X;X;X;X-X",
"b.v.b.v.b.b.~ t   q m G .XOX$Xw ) X +.$.@.| X _ =.+.[ < [ [ [ | u ) _ @.&.&._   ..A.*.-.{ _ ) =.S l.q.r 1.q.q   N.B.v.v.v.v.m.b.",
"                  F ,.m oXXXXXe u   ;.@.*.  o &.&.@.[   ) { } { [ o [ @.@.&. .) +.@.-.+.@.  [ &.e g.0.8 :.q.9 o                 ",
"j b T t F T 8 t   d 2.9 .XoXXXJ   . y @.  +   _ o [   X X _   )      .@.{ +.` X @.*.@.*.+.  [  .S j.7.F m e.q   ! Q t N t T T t ",
"E 2X2X2X2X2X-Xm.  h w q >.@XXX; . . < i _ _ p u u _ o . ) p       O o o u $   o X   p  .  o   . e 9.q e 9 > 0 o uXqX2X2X3XN.8 R ",
"Q 2XB.-XV.N.v.Q X 8 D w 8 A t.w ) u     &.*.$.&.@.y < +.} [ @._ . p { [ [ _ X _ u a .   o   _ X 0 I 9 e :.9 r   1X;XC.C.C.b.  E ",
"W 2XV.C.V.C.m.~   e m Q.U.r 0 0 }  .X  .@.*.*.=.&.) . @.+.@.+.X.u { @.&.{ [ X ' @.+.$._   ) { ) 0 h 7.~.`.H.r o 2X5X1X;XC.b.  Q ",
"Q 2XB.>X;XN.v.~   e I.D.T.a.* K h q & K U A 9 h 9 D 6 7 O.@.+._ o _ @.@.9 0 l 6 { @.[   O.[ +.+.8 w.Y.z.U.Y.0   2X1XN.;X:Xv.  Q ",
"E 2XC.;XC.C.^ ^ X J Y.I.U.9.:.'.*X=X{.8 u.s.u.* q.W.!.n { +.{ [ X _ ;.{ t W.r F { [ ) + _ @.$.%.G 9.I.U.G.z.t O 2X<XC.>X-Xb.@ T ",
"E 2XV.-X-XC.v.v.  > H.H.Q.0.3..X=X=X&Xt 5.q.f.q 0.D.z.0 ) ` + .   ` +.+.3 U.S 0 +.@.[   ' @.[ +.q 9.U.z.G.Y.r   8X1XC.C.V.b.  W ",
"R 2X-XC.-XV.m.c.. A 0.0.0.r.: 0 7 r 7 V b r r f r t r ,       y ) o X + 0 r.- 0 [ p ) X . _ ) p : h q.W.U.d.r . 2X>XC.V.V.b.  E ",
"Q 2XC.;XV.B.N.b.  8 t e 9 S 8 t #.X @.a   u p   X   u   . [ +.{ { y   . - 6 1.0 p X ) u     < u e e 0 t > e r   1X;XC.C.:Xb.  E ",
"Q M.b.b.^ b.~ L o q = e.U.k.q.: ) p @.+.&.X o X )  .[ ' . ) %.+.@._ < { 0 Y V k u _ *.@.+.. +.{ e +Xs.S e 9 7   N.N.b.b.v.v.  Q ",
"Q t   X         X 8 3 j.I.I.H.S i   &.*.*.@.  [ { _ [ _   [ &.@.$.[ o [ g 8.<.r ..*.@.@.$.u [ @.r ].].I.2 r.t X               E ",
"W T R e L T 8 0 o t g U.Q.I.K.S   i =.+.&.@.  ) +.{  ._   [ { { +...o _ q U.I.= +.&.A.&.+.X [ =.r OX'.I.q 9.A   E W T t T T T W ",
"2X2X2X2X2X2XC.m.< t 9 s.E.H.Y.9   i &.@.@.) o X @.[ ) . .   {  .+.)   + 8 F.Q.2 $.&.&.&.@.  [ #.H ^.'.J., 7.e   uXqX2X2X1X3X2X2X",
"-X-X>X>X;XV.M.^   9 = f.I.J.Y.w . o ) ` `     p     X y ' X ) X )   X _ j G.L.c     u O.o .     = ^.J.e 7 s t   2X<XB.C.-XC.-X:X",
"B.B.;XV.V.N.b.~   8 N w > 1.8 e ` u . X o   Z.X o X ) _ @. .u     ) @.{ e E.S.0 p y . o   o `   w 3.S ; g 4 r   7X5XV.V.B.C.V.B.",
"C.-XC.N.;Xm.v.~ o q M t 8 e 9 r +.*.&.p   @.@.#.  [ +.} ' @.%.+.   .&.&.9 & f e +.@.@.)   _ ) _ r 9 r l.I.d.r   6X5X;XV.B.C.C.V.",
";XV.V.C.C.N.m.R   h U.U.H.A 9 q e 9 r 0 9 f t r - c q 9 S 9 f w q F S > q r A 9 0 9 t 0 Y e A > > r 7.Q.S.U.9   8X1XC.V.C.C.;XC.",
":XV.1X:XV.V.m.v.X 5 U._.J.q e K.Y.P.9 q `.f.R.s._.w r q H.@XY.q 7.I.H.H.H.I 9 J.W.I.s.9 w I.I.H.7.P w.z.I.I.t   7X<X-XV.C.:XV.C.",
"C.;X>Xm.B.;XN.^   h R.~.s.S M H.I.I.; K Y.h.T.g.i.j e +X(.oXS.w w.S.T.T.R.,.9 K.I.S.U.L - U.U.E.0.9 5.W.U.q.t < 7X<XC.C.C.V.B.V.",
":XC.B.N.V.;Xm.b.  9 K.4.> K g Y.Q.z.1.e f.s.U.d.F , U.OX'..XU.e d.G._.z.K.h j h W.U.d.q 8.R.S.U.q.e w.2.g 4 :   2X1XC.;XC.C.;X-X",
"v.v.m.v.v.v.~ ~   q 9 H q 8 H ; I.K.,.S q > q V w F /.#X(.@XQ.8 q.Y.z.d.2.= w w 4 1.K H = K.Y.H.f t w w e e.D   V.N.v.b.v.v.b.v.",
"  X               H A - 0 w 8 G 4 g t w r : A t e c r G V C , F e 9 ; L 8 : F : : 9 3 r r e 3 t A r r r t s 0 .                 ",
"L b T N R L t t X     o         < X   X   + o     X     X   .   X   o o         X   X         X   o #     .     T Q F T t T t T ",
"E 2X2X2X2X2X2X5X4X0X9XqXuXuXiXuXiXuXuXtXuXeXrXuXrXtXuXtXyX,XH T W eXuXuXrXrXuXtXyXuXtXuXrXuXtXrXtXrXeXuXuXtXyXyXqX8X2X2X2XN.t E ",
"R 2XB.B.C.:XC.C.;XB.;X2XC.<X1X1X5X<X7X1X1X>XB.>X>X3X>X1X>XM.  E W qX<X:X1X7X4X1X>X5X:X6X1X:X>X7X:X>X3X1X1X:X>X2X5X1XC.V.C.v.  E ",
"W 3XV.-XM.C.m.C.C.C.B.B.C.-XV.;XV.C.C.C.C.V.B.N.N.N.N.B.B.m.  W Q 2X-X;XC.V.V.C.-XV.:X;XC.V.V.;XC.;XC.C.;XC.:X:XC.;XC.-X-Xv.. R ",
"R 2XC.N.V.C.m.N.C.C.m.C.C.:X;XC.B.C.V.C.V.n.b.N.N.V.N.C.V.v.  E E 2XB.-X-XV.C.V.C.C.C.V.C.V.:X;X:X-XB.V.C.B.C.:XC.C.C.;X;Xb.  Q ",
"Q 2XV.B.V.-XC.>X:XB.V.;XC.;X;X-X-XC.B.B.B.N.N.V.N.B.m.B.V.m.  R R 2XC.C.C.V.N.V.V.V.V.C.C.C.C.-X;XC.C.-XV.;XV.>XC.;XB.V.C.v.o T ",
"R 2X-XN.C.B.-XV.B.N.C.C.C.;X;XB.C.m.N.N.V.B.M.V.C.C.C.V.C.c.  Q ! 2X-XC.V.B.V.B.V.V.B.N.-XC.N.C.C.C.V.B.C.V.;X;XV.-X-XC.C.b.  E ",
"! 2XV.C.2X;XC.-XC.V.:XC.N.;XN.^ m.N.V.B.;XC.C.V.C.C.V.B.C.b.. T R 3XV.;Xm.N.B.N.B.V.V.-X-XV.V.B.B.B.B.-X;X;XC.C.;XC.M.B.C.b.  R ",
"! N.^ b.v.b.b.v.b.v.b.v.v.b.v.v.b.v.v.b.b.v.b.v.b.v.b.v.b.b.  E Q N.v.b.v.v.b.v.v.m.v.b.v.b.v.b.b.b.v.v.v.b.b.v.b.v.b.v.b.^ o E ",
"E t         .                     X       .                   ! R t                                                 X     .   E "
};
